<?xml version="1.0" encoding="UTF-8"?>
<svg id="Layer_2" data-name="Layer 2" xmlns="http://www.w3.org/2000/svg" viewBox="0 0 93.87 104.84">
  <defs>
    <style>
      .cls-1 {
        fill: #b1060e;
      }
    </style>
  </defs>
  <g id="Capa_1" data-name="Capa 1">
    <g>
      <path class="cls-1" d="m0,52.28c0-11.68-.02-23.36,0-35.05C.03,9.6,3.77,3.73,10.44,1.21,12.38.48,14.57.08,16.65.07,33.25-.02,49.84-.01,66.44.03c9.4.02,16.47,6.95,16.62,16.38.13,8.24.05,16.49.02,24.73,0,2.79-1.62,4.49-4.1,4.48-2.46-.01-4.06-1.71-4.07-4.53-.04-7.92-.04-15.83,0-23.75.01-2.38-.46-4.55-2.08-6.36-1.66-1.85-3.78-2.76-6.25-2.76-16.7-.02-33.41-.05-50.11.01-4.65.02-7.86,3.24-8.19,7.87-.04.54-.05,1.09-.05,1.64,0,23.15,0,46.29-.01,69.44,0,2.47.33,4.79,2.07,6.7,1.76,1.94,3.99,2.78,6.57,2.78,4.37,0,8.74-.06,13.1.02,3.41.06,5.42,3.54,3.52,6.2-.65.91-1.99,1.84-3.04,1.86-5.61.1-11.26.27-16.84-.25-7.11-.66-13.21-7.37-13.43-14.54-.25-8.24-.12-16.48-.15-24.72-.01-4.31,0-8.63,0-12.94Z"/>
      <path class="cls-1" d="m93.87,66.64c.06,4.6-1.05,7.51-3.38,9.86-7.42,7.47-14.87,14.91-22.36,22.31-.66.66-1.62,1.14-2.52,1.41-5.01,1.47-10.05,2.84-15.08,4.26-1.76.5-3.48.6-4.88-.83-1.44-1.46-1.38-3.16-.79-5.02,1.53-4.82,2.92-9.69,4.46-14.51.32-1,.89-2.02,1.63-2.76,7.33-7.4,14.7-14.77,22.11-22.09,3.62-3.59,8.93-4.6,13.46-2.54,4.77,2.16,7.19,5.97,7.37,9.92Zm-21.93,5.1c-4.46,4.5-8.88,9.08-13.44,13.53-2.67,2.61-2.49,6.17-3.95,9.54,2.37-.66,4.34-1.08,6.21-1.77,1.27-.47,2.59-1.13,3.56-2.04,2.99-2.79,5.81-5.75,8.71-8.63,1.62-1.61,3.25-3.19,4.89-4.79-2.01-1.97-3.88-3.79-5.98-5.84Zm11.9-.25c1.65-1.27,2.21-2.9,1.64-4.81-.45-1.54-1.63-2.46-3.19-2.71-1.78-.28-3.15.46-4.14,1.85,1.91,1.9,3.75,3.74,5.69,5.67Z"/>
      <path class="cls-1" d="m41.39,24.59c6.98,0,13.97-.02,20.95,0,2.1,0,3.57,1.06,4.14,2.82.52,1.6.07,3.44-1.32,4.39-.77.52-1.79.93-2.7.93-13.97.06-27.93.06-41.9.02-2.49,0-4.18-1.77-4.17-4.1.01-2.33,1.71-4.04,4.21-4.06,6.93-.04,13.86-.01,20.79-.02Z"/>
      <path class="cls-1" d="m41.56,49.16c-6.87,0-13.75.01-20.62,0-2.53,0-4.15-1.27-4.47-3.41-.36-2.42,1.17-4.45,3.6-4.74.32-.04.65-.03.98-.03,13.64,0,27.28-.01,40.92.03.94,0,1.97.22,2.8.66,1.6.84,2.27,2.78,1.79,4.52-.49,1.76-2.01,2.95-4.04,2.98-3.38.05-6.76.02-10.15.02-3.6,0-7.2,0-10.8,0Z"/>
      <path class="cls-1" d="m33.38,57.34c4.03,0,8.07-.01,12.1,0,2.84.01,4.69,1.68,4.66,4.14-.03,2.41-1.84,4.04-4.58,4.05-8.18.02-16.36.02-24.53,0-2.84,0-4.66-1.65-4.63-4.14.03-2.48,1.83-4.04,4.72-4.05,4.09-.01,8.18,0,12.27,0Z"/>
    </g>
  </g>
</svg>