<?xml version="1.0" encoding="UTF-8"?>
<svg id="Layer_1" data-name="Layer 1" xmlns="http://www.w3.org/2000/svg" viewBox="0 0 365.77 273.5">
  <defs>
    <style>
      .cls-1 {
        fill: #023853;
        stroke: #010101;
        stroke-miterlimit: 10;
        stroke-width: .5px;
      }
    </style>
  </defs>
  <g id="Capa_1" data-name="Capa 1">
    <g>
      <path class="cls-1" d="m182.7.53c44.64,0,89.28.7,133.93-.27,25.97-.57,49.26,22.06,48.89,53.88-.64,55.25-.55,110.53,0,165.8.31,30.95-22.52,53.54-48.8,53.31-89.28-.7-178.57-.67-267.82,0-25.97.2-48.98-22.29-48.64-53.54.61-55.68.15-111.39.18-167.07C.47,26.93,14.61,7.21,37.47,1.4c3.64-.94,7.55-.8,11.34-.84,44.64-.07,89.28,0,133.93,0l-.03-.03Zm.18,249.43h36.48c32.48,0,64.99.07,97.47,0,15.55-.03,26.77-11,26.8-26.54.12-57.79.21-115.54-.21-173.32-.03-5.72-2.81-12.1-5.93-16.88-5.1-7.79-13.23-9.69-21.79-9.69-88.55.07-177.07,0-265.62,0-1.34,0-2.66-.03-4,.07-13.99,1.14-23.96,12.23-23.99,27.1-.06,57.35-.09,114.74.09,172.09,0,4.38,1.19,9.16,3.06,13,5.07,10.39,13.81,14.17,24.23,14.17h133.41Z"/>
      <path class="cls-1" d="m170.05,186.52v21.06h-21.24v-20.62h-63.62v20.62h-21.27c0-5.48-.15-10.96.06-16.48.12-3.31-.64-4.98-3.82-6.32-11.09-4.68-16.78-13.84-16.59-26.9.09-7.42-.4-15.21,1.5-22.16,1.5-5.48,6.17-9.99,9.59-14.81,2.23-3.14,5.41-5.72,7-9.16,5.59-12.23,10.76-24.73,15.86-37.23,1.47-3.58,3.06-5.35,7.06-5.28,21.66.27,43.33.2,64.99.07,3.3,0,5.01,1.04,6.36,4.45,3.94,9.89,8.25,19.59,12.44,29.34,3.33,7.79,6.33,15.27,13.48,20.75,4.16,3.18,6.14,10.53,7.82,16.44,1.25,4.38.55,9.46.55,14.24,0,17.68-4.64,25.17-20.14,31.95l-.03.03Zm-53.5-23.6c12.89,0,25.79.07,38.71,0,15.03-.13,13.63,2.47,13.66-14.91,0-7.89-.46-8.39-7.79-8.39-27.13,0-54.27-.1-81.4,0-16.44.07-14.73-2.84-14.88,16.88-.03,4.81,1.77,6.52,6.17,6.45,15.19-.2,30.34-.07,45.53-.07v.03Zm33.67-46.79c-3.09-7.39-5.62-13.84-8.56-20.05-.67-1.44-2.75-2.94-4.22-2.97-13.84-.23-27.68-.17-41.56-.07-1.1,0-2.72.77-3.15,1.7-3.12,6.92-6.02,14-9.11,21.39h66.58Z"/>
      <path class="cls-1" d="m321.3,100.26h-107.92v-22.76h107.92v22.76Z"/>
      <path class="cls-1" d="m213.38,196.01v-22.63h108.01v22.63h-108.01Z"/>
      <path class="cls-1" d="m213.5,125.73h72.08v22.73h-72.08s0-22.73,0-22.73Z"/>
    </g>
  </g>
</svg>