<?xml version="1.0" encoding="UTF-8"?>
<svg id="Layer_2" data-name="Layer 2" xmlns="http://www.w3.org/2000/svg" viewBox="0 0 119.53 81.68">
  <defs>
    <style>
      .cls-1 {
        fill: #b1060e;
      }
    </style>
  </defs>
  <g id="Capa_1" data-name="Capa 1">
    <g>
      <path class="cls-1" d="m59.71.08c14.61,0,29.22.21,43.83-.08,8.5-.17,16.12,6.6,16,16.12-.21,16.53-.18,33.07,0,49.61.1,9.26-7.37,16.02-15.97,15.95-29.22-.21-58.44-.2-87.65,0C7.42,81.74-.11,75.01,0,65.66.2,49,.05,32.33.06,15.67.07,7.98,4.7,2.08,12.18.34c1.19-.28,2.47-.24,3.71-.25,14.61-.02,29.22,0,43.83,0Zm.06,74.63c3.98,0,7.96,0,11.94,0,10.63,0,21.27.02,31.9,0,5.09-.01,8.76-3.29,8.77-7.94.04-17.29.07-34.57-.07-51.86-.01-1.71-.92-3.62-1.94-5.05-1.67-2.33-4.33-2.9-7.13-2.9-28.98.02-57.95,0-86.93,0-.44,0-.87-.01-1.31.02-4.58.34-7.84,3.66-7.85,8.11-.02,17.16-.03,34.33.03,51.49,0,1.31.39,2.74,1,3.89,1.66,3.11,4.52,4.24,7.93,4.24,14.55,0,29.1,0,43.65,0Z"/>
      <path class="cls-1" d="m55.57,55.73v6.3h-6.95v-6.17h-20.82v6.17h-6.96c0-1.64-.05-3.28.02-4.93.04-.99-.21-1.49-1.25-1.89-3.63-1.4-5.49-4.14-5.43-8.05.03-2.22-.13-4.55.49-6.63.49-1.64,2.02-2.99,3.14-4.43.73-.94,1.77-1.71,2.29-2.74,1.83-3.66,3.52-7.4,5.19-11.14.48-1.07,1-1.6,2.31-1.58,7.09.08,14.18.06,21.27.02,1.08,0,1.64.31,2.08,1.33,1.29,2.96,2.7,5.86,4.07,8.78,1.09,2.33,2.07,4.57,4.41,6.21,1.36.95,2.01,3.15,2.56,4.92.41,1.31.18,2.83.18,4.26,0,5.29-1.52,7.53-6.59,9.56Zm-17.51-7.06c4.22,0,8.44.02,12.67,0,4.92-.04,4.46.74,4.47-4.46,0-2.36-.15-2.51-2.55-2.51-8.88,0-17.76-.03-26.64,0-5.38.02-4.82-.85-4.87,5.05-.01,1.44.58,1.95,2.02,1.93,4.97-.06,9.93-.02,14.9-.02Zm11.02-14c-1.01-2.21-1.84-4.14-2.8-6-.22-.43-.9-.88-1.38-.89-4.53-.07-9.06-.05-13.6-.02-.36,0-.89.23-1.03.51-1.02,2.07-1.97,4.19-2.98,6.4h21.79Z"/>
      <path class="cls-1" d="m105.07,29.92h-35.32v-6.81h35.32v6.81Z"/>
      <path class="cls-1" d="m69.75,58.57v-6.77h35.35v6.77h-35.35Z"/>
      <path class="cls-1" d="m69.79,37.54h23.59v6.8h-23.59v-6.8Z"/>
    </g>
  </g>
</svg>