<?xml version="1.0" encoding="utf-8"?>
<!-- Generator: Adobe Illustrator 27.8.1, SVG Export Plug-In . SVG Version: 6.00 Build 0)  -->
<svg version="1.1" id="Layer_2_00000001647118499829100210000013516976971901537711_"
	 xmlns="http://www.w3.org/2000/svg" xmlns:xlink="http://www.w3.org/1999/xlink" x="0px" y="0px" viewBox="0 0 106 106"
	 style="enable-background:new 0 0 106 106;" xml:space="preserve">
<style type="text/css">
	.st0{fill:#013753;stroke:#000000;stroke-miterlimit:10;}
</style>
<g id="Capa_1">
	<path class="st0" d="M11.4,63.1c-2.1-0.5-4.1-0.6-5.7-1.3C-0.6,59-1.9,51,3,46C8.6,40.3,14.3,34.6,20,28.9
		c8.6-8.6,17.1-17.2,25.7-25.7C49,0,53.1-0.9,57,0.9c1.2,0.6,2.3,1.5,3.3,2.4c3.3,3.2,6.6,6.5,9.8,9.8c0.4,0.4,0.9,0.8,1.5,1.4
		c0.1-0.7,0.1-1.2,0.1-1.6c0-3,0-6.1,0-9.1c0-2.7,1.1-3.7,3.7-3.8c4,0,8.1,0,12.1,0c2.5,0,3.7,1.2,3.7,3.6c0,0.4,0,0.9,0,1.3
		c0,9.1,0,18.1,0,27.1c0,1.6,0.5,2.7,1.6,3.7c3.5,3.4,6.9,6.8,10.3,10.3c5.2,5.5,2.9,14.1-4.3,16.2c-1.2,0.4-2.6,0.3-4.1,0.5
		c0,0.5-0.1,1.2-0.1,1.8c0,9.7,0,19.4,0,29.1c0,5.7-3,10-8.1,11.6c-1.1,0.4-2.4,0.5-3.6,0.5c-6.4,0.1-12.9,0-19.4,0
		c-2.6,0-3.7-1.1-3.7-3.7c0-6.9,0-13.9,0-20.8c0-0.6,0-1.2,0-1.9H46.1c0,0.9,0,1.7,0,2.6c0,6.7,0,13.5,0,20.2c0,2.6-1.1,3.7-3.7,3.7
		c-6.3,0-12.7,0-19,0c-7,0-11.9-4.9-12-12c0-9.7,0-19.4,0-29.1C11.4,64.2,11.4,63.6,11.4,63.1L11.4,63.1z M66,99.7
		c5.6,0,10.8,0,16.1,0c4.3,0,6.2-1.9,6.2-6.3c0-10.9,0-21.8,0-32.8c0-1.1-0.3-1.9-1.1-2.7c-11.1-11-22.1-22.1-33.1-33.1
		c-0.4-0.4-0.8-0.7-1.1-1c-0.2,0.1-0.3,0.2-0.4,0.2C41.1,35.5,29.7,47,18.2,58.4c-0.3,0.3-0.6,0.9-0.6,1.4c0,11.5-0.1,23.1,0,34.6
		c0,3.2,2.2,5.2,5.4,5.2c5.2,0,10.4,0,15.6,0c0.4,0,0.8-0.1,1.4-0.1c0-0.8,0-1.4,0-2.1c0-6.8,0-13.7,0-20.5c0-2.7,1.1-3.8,3.8-3.8
		c6.1,0,12.1,0,18.2,0c3.1,0,4.1,1,4.1,4.2c0,6.8,0,13.6,0,20.3C66,97.7,66,99.7,66,99.7z M5.7,53.1c0.9,1.2,1.5,2.3,2.4,3
		c1.2,0.9,2.5,0.6,3.7-0.2c0.6-0.4,1.1-1,1.6-1.5C25.6,42.2,37.8,30,50,17.8c2.2-2.2,3.7-2.2,5.9,0c6.7,6.7,13.4,13.4,20.1,20.1
		c5.8,5.8,11.5,11.5,17.3,17.3c1.8,1.8,4,1.8,5.5,0.1c1.3-1.5,1-3.6-0.7-5.3C84.1,35.9,70.1,21.8,56,7.7c-2.1-2.1-3.9-2.1-6,0
		c-3.6,3.6-7.2,7.2-10.8,10.8C28.8,29,18.3,39.4,7.9,49.9C7.1,50.7,6.6,51.8,5.7,53.1L5.7,53.1z M77.9,6.4c0,2.8,0.3,5.5-0.1,8.1
		c-0.6,4.6,0.7,8.2,4.6,10.9c0.9,0.6,1.6,1.5,2.5,2.4V6.4C85,6.4,77.9,6.4,77.9,6.4z"/>
</g>
</svg>
