<?xml version="1.0" encoding="UTF-8"?>
<svg id="Layer_2" data-name="Layer 2" xmlns="http://www.w3.org/2000/svg" viewBox="0 0 105.96 105.99">
  <defs>
    <style>
     .cls-1 {
        fill: #013753;
      }
    </style>
  </defs>
  <g id="Capa_1" data-name="Capa 1">
    <path class="cls-1" d="m11.35,63.12c-2.13-.47-4.06-.58-5.71-1.32-6.22-2.82-7.56-10.82-2.68-15.78,5.64-5.74,11.38-11.39,17.07-17.09,8.58-8.58,17.14-17.17,25.74-25.73C48.97,0,53.12-.88,56.96.92c1.22.57,2.35,1.45,3.33,2.39,3.33,3.22,6.57,6.53,9.85,9.8.42.42.86.82,1.49,1.42.05-.72.12-1.18.12-1.64,0-3.03-.01-6.07.01-9.1.02-2.67,1.08-3.74,3.7-3.75,4.03-.01,8.05-.01,12.08,0,2.47,0,3.65,1.17,3.73,3.62.01.44,0,.88,0,1.32,0,9.05.04,18.09-.04,27.14-.01,1.58.46,2.65,1.58,3.73,3.49,3.37,6.95,6.78,10.3,10.29,5.25,5.49,2.93,14.14-4.33,16.25-1.24.36-2.59.32-4.09.49-.03.55-.08,1.18-.08,1.82,0,9.71.01,19.42-.01,29.13-.01,5.7-2.98,9.99-8.07,11.6-1.14.36-2.38.52-3.57.53-6.45.05-12.91.03-19.36.02-2.62,0-3.71-1.1-3.71-3.73,0-6.95,0-13.9,0-20.85,0-.59,0-1.19,0-1.89h-13.8c0,.92,0,1.73,0,2.55,0,6.73,0,13.46,0,20.19,0,2.62-1.09,3.72-3.71,3.73-6.34.01-12.69.02-19.03,0-7.03-.02-11.94-4.9-11.97-11.98-.04-9.71-.01-19.42-.01-29.13,0-.65,0-1.31,0-1.74Zm54.68,36.58c5.56,0,10.85,0,16.14,0,4.31,0,6.22-1.92,6.22-6.26,0-10.92-.02-21.84.03-32.77,0-1.14-.31-1.94-1.12-2.74-11.06-11.01-22.09-22.06-33.13-33.09-.38-.37-.78-.72-1.14-1.04-.23.14-.35.18-.42.25-11.47,11.46-22.94,22.92-34.39,34.4-.34.34-.62.94-.62,1.41-.03,11.53-.06,23.06,0,34.59.01,3.15,2.25,5.23,5.39,5.24,5.19.02,10.37,0,15.56,0,.42,0,.84-.07,1.39-.12,0-.75,0-1.41,0-2.06,0-6.84,0-13.68,0-20.52,0-2.73,1.1-3.81,3.79-3.81,6.07,0,12.14,0,18.2,0,3.13,0,4.09.97,4.1,4.17,0,6.78,0,13.57,0,20.35v2ZM5.73,53.13c.92,1.15,1.52,2.26,2.43,2.96,1.16.89,2.53.63,3.69-.23.57-.42,1.06-.96,1.57-1.47,12.21-12.21,24.41-24.42,36.62-36.63,2.19-2.19,3.69-2.18,5.9.03,6.71,6.71,13.41,13.42,20.12,20.13,5.77,5.77,11.54,11.55,17.33,17.31,1.81,1.8,4.04,1.79,5.5.06,1.28-1.51,1.04-3.58-.68-5.3-14.08-14.09-28.16-28.17-42.24-42.24-2.08-2.08-3.91-2.06-6,.03-3.59,3.58-7.18,7.17-10.77,10.76-10.45,10.45-20.92,20.9-31.34,31.38-.8.8-1.29,1.91-2.13,3.19ZM77.93,6.38c0,2.75.28,5.47-.06,8.11-.6,4.62.71,8.23,4.55,10.94.89.63,1.61,1.52,2.54,2.42V6.38h-7.03Z"/>
  </g>
</svg>