<?xml version="1.0" encoding="UTF-8"?>
<svg id="Layer_2" data-name="Layer 2" xmlns="http://www.w3.org/2000/svg" viewBox="0 0 122.2 76.91">
  <defs>
    <style>
      .cls-1 {
        fill: #013753;
      }
    </style>
  </defs>
  <g id="Capa_1" data-name="Capa 1">
    <g>
      <path class="cls-1" d="m61,76.9c-16.61,0-33.22,0-49.82,0-5.23,0-8.93-2.31-10.49-6.67-.44-1.23-.65-2.6-.66-3.91C0,47.74,0,29.16.01,10.58.02,4.59,4.06.37,10.04.03c.76-.04,1.53-.02,2.29-.02,32.83,0,65.67,0,98.5,0,5.41,0,9.1,2.25,10.67,6.67.48,1.34.66,2.85.66,4.29.04,18.33.03,36.65.02,54.98,0,6.72-4.21,10.94-10.98,10.95-16.74.03-33.47,0-50.21,0Zm.1-7.17c16.54,0,33.07,0,49.61,0,3.43,0,4.24-.82,4.24-4.28,0-18.06,0-36.13,0-54.19,0-3.19-.88-4.08-4.06-4.08-33.2,0-66.4,0-99.6,0-3.17,0-4.04.89-4.04,4.09,0,18,0,36,0,54,0,3.72.74,4.46,4.44,4.46,16.47,0,32.95,0,49.42,0Z"/>
      <path class="cls-1" d="m42.1,36.1c3.74,2.71,6.37,6.32,6.94,10.92.46,3.69.33,7.48.17,11.22-.07,1.62-1.39,2.77-3.14,2.78-8.96.05-17.92.05-26.88,0-1.64,0-3.03-1.05-3.04-2.61-.02-4.42-.06-8.9.6-13.25.59-3.88,3.3-6.77,6.47-9.07-4.74-6.33-3-13.37,1.25-17.14,4.59-4.07,11.43-4.17,16.04-.24,5.14,4.39,5.74,10.71,1.58,17.39Zm0,17.77c.43-4.87.06-9.25-4.48-12.03-3.48-2.13-7.03-2-10.37.25-4.22,2.85-4.49,7.14-4,11.77h18.85Zm-9.37-20.74c2.82-.03,5.09-2.29,5.07-5.06-.02-2.7-2.42-5.09-5.13-5.11-2.84-.01-5.18,2.39-5.11,5.26.06,2.83,2.28,4.94,5.17,4.91Z"/>
      <path class="cls-1" d="m85.54,56.42c-6.04,0-12.07,0-18.11,0-2.63,0-4.3-1.35-4.37-3.49-.08-2.18,1.68-3.74,4.35-3.74,12.01-.02,24.02-.02,36.03,0,2.77,0,4.39,1.44,4.34,3.71-.05,2.19-1.64,3.51-4.31,3.52-5.97.01-11.95,0-17.92,0Z"/>
      <path class="cls-1" d="m85.32,41.98c-6.04,0-12.07,0-18.11,0-2.53,0-4.11-1.34-4.16-3.45-.05-2.16,1.59-3.59,4.2-3.59,12.13,0,24.27,0,36.4,0,2.58,0,4.08,1.28,4.12,3.44.04,2.24-1.5,3.59-4.16,3.6-6.1.01-12.2,0-18.3,0Z"/>
      <path class="cls-1" d="m76.22,20.48c3.05,0,6.11-.02,9.16,0,2.38.02,3.93,1.37,4.01,3.42.09,2.17-1.41,3.76-3.86,3.79-6.17.06-12.34.06-18.51,0-2.39-.02-4.04-1.68-3.96-3.74.08-2.03,1.68-3.45,4.01-3.47,3.05-.03,6.11,0,9.16,0Z"/>
    </g>
  </g>
</svg>