<?xml version="1.0" encoding="UTF-8"?>
<svg id="Layer_1" data-name="Layer 1" xmlns="http://www.w3.org/2000/svg" viewBox="0 0 79.9 74.84">
  <defs>
    <style>
      .cls-1 {
        stroke-width: 0px;
      }
    </style>
  </defs>
  <g>
    <rect class="cls-1" x="26.68" y="20.09" width="5.64" height="26.25" transform="translate(-14.87 35.35) rotate(-51.15)"/>
    <rect class="cls-1" x="45.04" y="-2.7" width="5.64" height="26.24" transform="translate(9.71 41.15) rotate(-51.15)"/>
    <g>
      <rect class="cls-1" x="42.38" y="4.64" width="4.07" height="21.23" transform="translate(4.67 40.27) rotate(-51.14)"/>
      <rect class="cls-1" x="31.35" y="18" width="4.6" height="21.23" transform="translate(-9.74 36.87) rotate(-51.14)"/>
      <rect class="cls-1" x="33.71" y="11.22" width="10.81" height="21.23" transform="translate(-2.42 38.59) rotate(-51.14)"/>
    </g>
    <path class="cls-1" d="M79.9,51.59l-3.53,4.38s-6.92-3.04-11.95-7.09c-5.02-4.05-5.15-6.69-11.31-11.65-6.15-4.96-6.57-5.29-6.57-5.29l3.53-4.38s1.23.99,6.29,5.07c5.06,4.08,8.22,4.2,14.01,8.86,5.78,4.66,9.52,10.1,9.52,10.1Z"/>
  </g>
  <rect class="cls-1" y="66.09" width="56.25" height="8.75"/>
  <rect class="cls-1" x="8.43" y="54.72" width="39.4" height="8.75"/>
</svg>