<?xml version="1.0" encoding="UTF-8"?>
<svg id="Layer_1" data-name="Layer 1" xmlns="http://www.w3.org/2000/svg" viewBox="0 0 28.32 47.32">
  <defs>
    <style>
      .cls-1 {
        fill: #013753;
        stroke: #000;
        stroke-miterlimit: 10;
        stroke-width: .75px;
      }
    </style>
  </defs>
  <path class="cls-1" d="m27.24,1.33c-.18-.36-.48-.72-.84-.84-.18-.06-.42-.12-.6-.12s-.42.06-.6.12l-2.03.78c-1.79.72-3.71,2.63-4.42,4.42l-.78,1.85c-.84.3-1.49.96-1.79,1.79-.36.84-.36,1.73,0,2.57l-2.39,5.68h-7.17c-.24,0-.48.12-.6.3-.06.06-1.02,1.38-2.21,3.41-1.55,2.69-3.41,6.7-3.41,10.22s1.26,6.82,3.47,9.51l-3.35,4.72c-.18.24-.18.54-.06.78.12.24.42.42.72.42h24.81c.3,0,.54-.18.72-.42.12-.24.12-.6-.06-.78l-3.35-4.72c2.21-2.63,3.47-5.98,3.47-9.51s-1.85-7.53-3.41-10.22c-1.14-1.97-2.15-3.35-2.21-3.41-.12-.18-.36-.3-.6-.3h-1.61l1.61-3.89c.84-.3,1.49-.96,1.79-1.79.36-.84.36-1.73,0-2.57l.78-1.85c.3-.66,1.26-1.67,1.91-1.91l1.97-.84c.78-.3,1.14-1.2.84-2.03l-.6-1.38Zm-6.7,8.19c.42.48.6,1.2.3,1.85-.24.66-.9,1.02-1.49,1.08l-2.21,5.2h-1.67l2.39-5.8c-.42-.48-.6-1.2-.3-1.85.24-.66.9-1.02,1.49-1.08l1.14-2.63c.6-1.43,2.21-3.05,3.65-3.65l1.97-.84.6,1.43-2.03.9c-1.02.42-2.33,1.73-2.75,2.75l-1.08,2.63Zm-3.23,35.93H2.61l2.27-3.23.18-.3h16.92l.18.3,2.27,3.23h-7.11Zm4.48-5.08H5.3c-2.15-2.45-3.35-5.5-3.35-8.79,0-3.05,1.55-6.52,2.99-9.03h17.22c1.43,2.51,2.99,6.04,2.99,9.03,0,3.29-1.2,6.4-3.35,8.79Zm-4.3-19.43H5.84c.48-.78.9-1.38,1.14-1.73h13.03c.24.36.66.96,1.14,1.73h-3.65Z"/>
  <path class="cls-1" d="m9.55,28.41c0-.18-.06-.3-.18-.42l-.18-.18c-.12-.12-.3-.18-.42-.18-.18,0-.3.06-.36.18-.78,1.02-1.2,2.27-1.14,3.53.06,1.2.42,2.27,1.2,3.17.12.12.24.18.36.18.18,0,.3-.06.42-.18l.18-.18c.12-.12.18-.3.18-.48,0-.12-.06-.3-.12-.42-.48-.66-.72-1.43-.78-2.21-.06-.9.24-1.79.78-2.51,0,0,.06-.18.06-.3Z"/>
  <path class="cls-1" d="m7.15,26.26c.18-.24.18-.6-.06-.84l-.24-.24c-.24-.24-.6-.24-.84.06-2.87,3.47-2.87,8.49.06,11.9.18.24.6.24.78,0l.24-.24c.24-.24.24-.6,0-.84-2.27-2.81-2.27-6.94.06-9.8Z"/>
</svg>