<?xml version="1.0" encoding="UTF-8"?>
<svg id="Layer_2" data-name="Layer 2" xmlns="http://www.w3.org/2000/svg" viewBox="0 0 74.6 119.54">
  <defs>
    <style>
      .cls-1 {
        fill: #b1060e;
      }
    </style>
  </defs>
  <g id="Capa_1" data-name="Capa 1">
    <g>
      <path class="cls-1" d="m37.34,44.73c6.15,0,12.3-.03,18.45,0,7.06.04,12.98,5.07,13.96,11.8,1.02,7.02-3.01,13.47-9.84,15.54-1.4.42-2.93.6-4.4.6-12.11.05-24.23.03-36.34.02-.74,0-1.55.1-2.22-.13-2.03-.72-2.91.08-3.7,1.96-2.31,5.49-3.94,11.1-3.91,17.1.04,8.25,3.88,13.54,11.75,16.14,6.84,2.26,13.9,2.56,20.99,2,3.56-.28,7.19-.77,10.6-1.79,9.46-2.82,13.58-9.38,12.45-19.24-.15-1.35-.38-2.7-.6-4.04-.51-3.03,1.09-5.5,3.89-5.99,2.48-.43,4.8,1.46,5.34,4.31,1.07,5.74,1.32,11.48-.41,17.14-2.57,8.38-8.38,13.74-16.55,16.29-13.01,4.07-26.22,4.19-39.18-.09C4.3,111.97-.97,101.11.14,87.99c.61-7.21,2.81-13.93,6.08-20.36.34-.67.29-1.82-.05-2.51-4.66-9.46,1.94-20.3,12.52-20.39,6.21-.05,12.42,0,18.64,0Zm-.17,18.64c6.21,0,12.42.03,18.63-.02,2.82-.02,4.77-2.02,4.76-4.66-.01-2.57-1.92-4.6-4.62-4.61-12.42-.05-24.84-.08-37.26.07-1.28.01-2.8.98-3.76,1.95-1.26,1.27-1.23,3.05-.41,4.69.9,1.8,2.43,2.58,4.39,2.58,6.09,0,12.17,0,18.26,0Z"/>
      <path class="cls-1" d="m32.4,26.47c.25-2.27.34-4.58.79-6.81.64-3.16,2.5-5.64,5.06-7.58,4.76-3.59,9.53-7.17,14.3-10.74,2.62-1.96,5.4-1.76,7.08.48,1.69,2.26,1.15,4.98-1.44,6.94-4.65,3.52-9.31,7.05-14,10.52-1.53,1.13-2.26,2.56-2.24,4.44.02,2.24.04,4.47-.01,6.71-.07,2.99-1.98,4.97-4.67,4.97-2.69,0-4.56-2-4.64-4.99-.04-1.3,0-2.61,0-3.91-.07,0-.15-.02-.22-.02Z"/>
    </g>
  </g>
</svg>