<?xml version="1.0" encoding="utf-8"?>
<!-- Generator: Adobe Illustrator 27.8.1, SVG Export Plug-In . SVG Version: 6.00 Build 0)  -->
<svg version="1.1" id="Layer_2_00000145032888418525642320000012769200173249946040_"
	 xmlns="http://www.w3.org/2000/svg" xmlns:xlink="http://www.w3.org/1999/xlink" x="0px" y="0px" viewBox="0 0 102.4 102.6"
	 style="enable-background:new 0 0 102.4 102.6;" xml:space="preserve">
<style type="text/css">
	.st0{fill:#013753;stroke:#000000;stroke-width:2;stroke-miterlimit:10;}
</style>
<g id="Capa_1">
	<g>
		<path class="st0" d="M31.9,42.6c2,4.5,4.6,8.1,7.5,11.5c5.3,6.2,11.3,11.7,18.5,15.6c1.2,0.6,1.8,0.5,2.7-0.4
			c2.1-2.2,4.3-4.4,6.6-6.5c3.8-3.4,9.1-3.5,12.8,0.1c4.5,4.2,8.8,8.5,13,13c4.3,4.6,4.2,9.8-0.1,14.6c-2.5,2.8-5.1,5.4-7.9,8
			c-3.8,3.5-8.4,4.6-13.5,4.1c-8.4-0.8-16-4.1-23.2-8.2C29.9,84,15.9,69.2,6.2,50.4c-2.8-5.3-4.9-10.9-5.8-16.8
			c-1.1-6.8-0.1-13.1,5.4-18c2.4-2.2,4.5-4.7,7-6.8c4.5-3.8,9.4-3.9,13.7,0.1c4.6,4.2,9,8.7,13.2,13.3c3.7,4,3.6,9-0.1,13
			C37.2,37.8,34.4,40.1,31.9,42.6L31.9,42.6z M73.9,96.8c3-0.1,5.8-1.1,8.1-3.5c2.1-2.2,4.2-4.3,6.3-6.4c2.9-2.9,2.9-4.9,0.1-7.8
			c-3.7-3.7-7.4-7.4-11.1-11.1c-2.7-2.6-4.4-2.7-7.1-0.1c-2.3,2.3-4.6,4.6-6.9,6.9c-2,2-3.5,2.1-6.1,0.9c-5.3-2.6-10.1-6-14.4-10
			c-6.4-5.9-12.2-12.4-16-20.4c-1.4-3-1.1-4.5,1.3-6.8c2.2-2.1,4.4-4.2,6.5-6.4c2.6-2.6,2.5-4.4,0-7c-3.8-3.9-7.7-7.7-11.5-11.6
			c-2.3-2.3-4.5-2.3-6.8,0c-2.4,2.4-4.8,4.7-7.1,7.1c-1.9,1.9-2.9,4.3-3,7c-0.3,6.1,1.6,11.6,4.1,17C20.4,66.7,36.7,83,59,93
			C63.7,95.1,68.5,96.5,73.9,96.8L73.9,96.8z"/>
		<path class="st0" d="M57.5,0c2.2,0.6,5.2,1.1,8,2.1C82.6,8.2,94.2,19.9,100.3,37c0.9,2.6,1.4,5.3,2,8c0.4,1.7-0.5,3-2.1,3.4
			c-1.6,0.4-3-0.4-3.5-2c-1-3.4-1.7-7-3-10.2c-6-14.6-16.6-24.2-31.7-29c-2-0.6-4.1-1-6.2-1.6c-1.4-0.4-2.3-1.9-2.1-3.2
			C54.1,1.1,55.3,0,57.5,0z"/>
		<path class="st0" d="M80.6,49.4c-1.2-0.1-2.2-0.9-2.5-2.4c-0.8-3.9-2.2-7.6-4.5-10.9c-4.2-6-9.8-10-17.1-11.5
			c-0.5-0.1-0.9-0.2-1.4-0.3c-1.7-0.5-2.5-1.9-2.1-3.6c0.3-1.4,1.8-2.4,3.3-2.1c13.1,2,24.8,13.3,27.2,26.4
			C84.1,47.9,83.1,49.5,80.6,49.4L80.6,49.4z"/>
	</g>
</g>
</svg>
