<?xml version="1.0" encoding="UTF-8"?>
<svg id="Layer_2" data-name="Layer 2" xmlns="http://www.w3.org/2000/svg" viewBox="0 0 102.43 102.57">
  <defs>
    <style>
      .cls-1 {
        fill: #b1060e;
      }
    </style>
  </defs>
  <g id="Capa_1" data-name="Capa 1">
    <g>
      <path class="cls-1" d="m31.91,42.57c1.95,4.47,4.61,8.07,7.55,11.45,5.35,6.16,11.27,11.66,18.52,15.59,1.16.63,1.81.51,2.7-.43,2.14-2.24,4.33-4.44,6.64-6.49,3.85-3.42,9.05-3.45,12.77.07,4.46,4.21,8.82,8.54,13.03,13.01,4.33,4.59,4.22,9.81-.13,14.57-2.52,2.76-5.14,5.43-7.87,7.98-3.78,3.54-8.4,4.61-13.48,4.14-8.42-.77-15.96-4.1-23.2-8.15-18.49-10.36-32.49-25.09-42.2-43.89-2.75-5.32-4.89-10.91-5.84-16.85-1.1-6.82-.1-13.07,5.38-18.01,2.42-2.18,4.51-4.72,6.97-6.84,4.5-3.85,9.38-3.89,13.69.11,4.57,4.24,8.98,8.69,13.2,13.29,3.68,4.01,3.59,9-.06,13.02-2.4,2.64-5.13,4.98-7.67,7.41Zm42,54.23c3.01-.05,5.81-1.09,8.07-3.5,2.05-2.18,4.17-4.29,6.27-6.42,2.9-2.95,2.93-4.86.05-7.76-3.69-3.71-7.4-7.41-11.11-11.11-2.65-2.64-4.44-2.66-7.09-.05-2.32,2.29-4.6,4.62-6.92,6.9-2,1.97-3.51,2.11-6.07.88-5.34-2.57-10.09-5.99-14.42-10-6.42-5.94-12.24-12.38-15.98-20.43-1.41-3.04-1.1-4.47,1.34-6.83,2.19-2.11,4.39-4.23,6.51-6.4,2.56-2.62,2.54-4.38-.04-7-3.82-3.88-7.67-7.73-11.54-11.57-2.32-2.3-4.47-2.3-6.84,0-2.41,2.35-4.79,4.73-7.14,7.13-1.9,1.94-2.88,4.26-3.03,7.02-.32,6.07,1.55,11.63,4.05,16.95,10.4,22.11,26.7,38.35,49.01,48.43,4.64,2.1,9.5,3.5,14.86,3.74Z"/>
      <path class="cls-1" d="m57.47,0c2.22.58,5.17,1.13,7.96,2.13,17.13,6.11,28.82,17.74,34.88,34.92.92,2.6,1.44,5.34,2.04,8.04.38,1.72-.49,2.99-2.08,3.4-1.55.4-2.97-.36-3.47-2.01-1.03-3.41-1.67-6.97-3.02-10.24-6.01-14.57-16.63-24.25-31.66-29.02-2.02-.64-4.14-.98-6.19-1.55-1.43-.39-2.32-1.86-2.09-3.19.25-1.41,1.5-2.47,3.63-2.48Z"/>
      <path class="cls-1" d="m80.59,49.44c-1.21-.09-2.15-.87-2.47-2.38-.83-3.89-2.15-7.58-4.46-10.86-4.22-6.01-9.84-9.95-17.06-11.52-.47-.1-.93-.21-1.39-.34-1.66-.46-2.48-1.89-2.08-3.58.33-1.39,1.83-2.36,3.31-2.13,13.14,1.95,24.82,13.3,27.19,26.42.52,2.87-.48,4.48-3.04,4.4Z"/>
    </g>
  </g>
</svg>