<?xml version="1.0" encoding="UTF-8"?>
<svg id="Layer_2" data-name="Layer 2" xmlns="http://www.w3.org/2000/svg" viewBox="0 0 106.07 106.04">
  <defs>
    <style>
      .cls-1 {
        fill: #b1060e;
      }
    </style>
  </defs>
  <g id="Capa_1" data-name="Capa 1">
    <path class="cls-1" d="m18.64,74.32c2.33,1.28,4.71,2.17,6.58,3.69,5.13,4.17,7.06,9.7,5.28,16.11-1.75,6.29-6.05,10.14-12.55,11.22-7.96,1.33-15.61-3.82-17.52-11.66-1.91-7.84,2.73-16.04,10.5-18.4,1.16-.35,1.54-.83,1.56-2.04.06-3.24-.07-6.55.52-9.71,1.43-7.73,8.55-13.53,16.45-13.83,8.15-.31,15.63,4.91,17.79,12.59.52,1.83.76,3.79.78,5.7.09,6.95-.04,13.91.06,20.87.07,4.68,2.36,8.16,6.65,10,4.14,1.77,8.08,1.07,11.59-1.84,3.31-2.75,4.7-8.41,2.89-12.53-2.62-5.95-5.09-11.96-7.65-17.93-.27-.63-.64-1.37-1.18-1.7-6.41-3.88-10.06-9.65-11.98-16.77-2.36-8.77-4.89-17.49-7.4-26.22-2.65-9.23,3.29-17.42,12.9-17.73.49-.02.97-.06,1.53-.09.07-.51.1-.94.18-1.37.28-1.65,1.67-2.78,3.26-2.67,1.57.11,2.77,1.27,2.81,2.92.07,2.76.06,5.52.02,8.28-.03,1.91-1.31,3.28-2.98,3.33-1.64.05-2.96-1.29-3.15-3.19-.03-.27-.05-.54-.07-.79-5.41-1.43-10.22,3.69-8.66,9.24,2.71,9.64,5.41,19.29,8.27,28.89,2.4,8.07,10.01,13.54,18.29,13.4,8.37-.14,15.65-5.75,17.96-13.86,2.67-9.37,5.34-18.74,8.02-28.1,1.64-5.76-2.4-10.44-8.49-9.69-.04.45-.04.94-.13,1.41-.3,1.52-1.74,2.73-3.15,2.7-1.45-.03-2.94-1.26-3-2.81-.12-2.98-.12-5.96,0-8.94.06-1.62,1.45-2.75,2.98-2.79,1.44-.04,2.76.97,3.13,2.46.12.47.12.97.18,1.45,1.73.24,3.44.32,5.07.72,7.2,1.77,11.62,9.24,9.63,16.39-2.77,9.91-5.61,19.8-8.53,29.67-1.76,5.95-5.43,10.51-10.65,13.86-.64.41-1.25,1.09-1.55,1.79-2.76,6.37-5.47,12.75-8.13,19.16-.36.88-.45,1.92-.46,2.89-.08,8.37-4.95,14.79-13,17.07-9.34,2.64-19.75-4.05-21.11-13.68-.36-2.55-.34-5.17-.36-7.75-.05-5.41-.15-10.82.02-16.23.2-6.43-5.14-11.66-10.76-11.83-6.8-.2-11.97,4.35-12.4,11.05-.16,2.52-.03,5.07-.03,7.29Z"/>
  </g>
</svg>