<?xml version="1.0" encoding="utf-8"?>
<!-- Generator: Adobe Illustrator 27.9.0, SVG Export Plug-In . SVG Version: 6.00 Build 0)  -->
<svg version="1.1" id="Layer_1" xmlns="http://www.w3.org/2000/svg" xmlns:xlink="http://www.w3.org/1999/xlink" x="0px" y="0px"
	 viewBox="0 0 64 80" style="enable-background:new 0 0 64 80;" xml:space="preserve">
<style type="text/css">
	.st0{stroke:#000000;stroke-miterlimit:10;}
</style>
<path class="st0" d="M29.8,13.7c3.2,0,5.8-2.6,5.9-5.8C35.7,4.7,33,2,29.8,2S24,4.7,24,7.9C24,11.1,26.6,13.7,29.8,13.7z M29.8,3.5
	c2.4,0,4.4,2,4.4,4.4c-0.1,2.4-2.2,4.3-4.6,4.2c-2.3-0.1-4.1-1.9-4.2-4.2C25.5,5.5,27.4,3.5,29.8,3.5z"/>
<path class="st0" d="M59.8,51.7c-0.2,0-0.4,0.1-0.5,0.2c0,0-2.4,2.1-11.8,3.3c-0.2-1-0.5-2-0.9-2.9c-0.6-1.3-0.9-2.8-0.8-4.2l0,0
	l4.4-35.4c0.3-0.8,0.3-1.7-0.2-2.4c-0.4-0.7-1-1.2-1.7-1.4c-0.7-0.2-1.5-0.2-2.2,0.2l-8.2,4.5l-7.8,1.6H26c-2.3,0-4.4,1.5-5.2,3.7
	l-4.2,12.9l-0.1,0.3c0,0.1-0.1,0.2-0.1,0.3l-0.2,1.2l-1.1,5.6c0,0.1,0,0.1,0,0.2l-0.7,3.8L11,52.7c-0.4,1.2-0.2,2.5,0.5,3.5H4.2
	c-1.2-0.1-2.2,0.8-2.2,2c0,0.1,0,0.1,0,0.2C2,60.8,9.4,62,14.5,62h35.1c6.1,0,12.4-6,12.4-8c0.1-1.2-0.8-2.2-2-2.3
	C59.9,51.7,59.8,51.7,59.8,51.7z M46.1,56.2c0.1,0.6,0.2,1.2,0.2,1.8c0,0.1,0,0.2,0,0.3c0,0.6,0,1.3,0,2v0.2h-8.7c0,0,0-0.1,0-0.1
	c0.1-0.6,0.2-1.1,0.3-1.6c0-0.1,0-0.2,0.1-0.3c0.1-0.5,0.3-1,0.5-1.5c0.5-1.4,1.2-2.7,2.1-3.8c0.9-1.2,1.6-2.5,2-4
	c0-0.1,0-0.1,0-0.2v-0.1h1.5c0,1.4,0.3,2.8,0.9,4.1C45.5,54,45.9,55.1,46.1,56.2z M32,56.1L32,56.1c0.5-0.6,0.8-1.4,0.8-2.2V43.7
	c0-0.9-0.3-1.7-0.9-2.3l-3.3-4.2L27,34.8c-0.6-0.7,0.3,0.4,0,0l3.6-9.1l3.7,2.6l0.8,0.6l8.2,4l-2,15.8l0,0c-0.4,1.3-1,2.5-1.8,3.6
	c-0.8,1.2-1.5,2.4-2.1,3.7C35.7,56.1,33.9,56.1,32,56.1z M17.1,36.4c0.2,0.3,0.4,0.5,0.6,0.8l0,0l0,0l2.3,2.3l-3.4-0.8L17.1,36.4z
	 M26.2,56.1h-8.8c0.3-0.3,0.4-0.7,0.6-1.1l4.6-13l2.9,3v8.9C25.4,54.7,25.7,55.5,26.2,56.1z M26.9,53.9v-9.2c0-0.2-0.1-0.4-0.2-0.5
	l-3.2-3.3l4.2-2.7l3,4c0.4,0.4,0.6,0.9,0.6,1.5v10.2c-0.1,1.2-1.1,2.1-2.3,2C27.8,55.9,26.9,55,26.9,53.9L26.9,53.9z M31.8,22.5
	c0,0,0-0.1,0-0.1l0,0l0.1,0l1.4-0.6l3.9,3.1c0,0,0.1,0.1,0.1,0.1l6.4,3.3l-0.4,3.1l-7.7-3.8l-0.5-0.4l-4.1-2.9L31.8,22.5z M44,26.6
	l-5.9-3l-3.2-2.5l4.4-1.8l0.9-0.4l5.1-2.9L44,26.6z M44.4,47.3h-1.5l4-32.2l1.6-0.9L44.4,47.3z M38.3,15c0.1,0,0.1,0,0.2-0.1
	l8.3-4.5c0.2-0.1,0.4-0.2,0.6-0.2c0.1,0,0.3,0,0.4,0.1c0.4,0.1,0.7,0.4,0.9,0.7c0.2,0.4,0.2,0.8,0,1.1l0,0c-0.2,0.3-0.4,0.5-0.8,0.6
	L45.9,14l0,0l-6.5,3.6l0,0l-0.5,0.3l-7.4,3L31.1,21h-0.4c-0.1,0-0.3,0-0.4,0h-0.1c-0.2,0-0.3-0.1-0.5-0.1h-0.1
	c-0.2-0.1-0.4-0.1-0.5-0.3c-0.4-0.3-0.7-0.8-0.7-1.3c0-0.2,0-0.3,0-0.5c0-1.8,1.1-2.1,1.7-2.2h0.2L38.3,15z M22.2,19.4
	c0.6-1.6,2.1-2.7,3.8-2.8h1.4c-0.1,0.1-0.1,0.2-0.2,0.4v0.1c-0.1,0.2-0.2,0.5-0.2,0.7l0,0.2c-0.1,0.3-0.1,0.6-0.1,0.9
	c0,0.3,0,0.5,0.1,0.8c0.1,0.9,0.6,1.7,1.3,2.2c0.2,0.1,0.4,0.3,0.6,0.3l0.2,0.1l0.4,0.1l0.2,0l0.4,0.1h0.1l0,0l-4.8,12.1
	c0,0.1,0,0.2,0,0.3v0.2c0,0.2,0.1,0.3,0.1,0.4l1.2,1.6l-4.3,2.7l-3.7-3.7c-0.2-0.2-0.4-0.4-0.5-0.7c0,0,0-0.1-0.1-0.2
	c-0.1-0.2-0.2-0.4-0.3-0.6c0-0.1,0-0.2,0-0.3c-0.1-0.2-0.1-0.4-0.1-0.6c0-0.1,0-0.3,0-0.4c0-0.2,0-0.3,0-0.5c0-0.1,0-0.1,0-0.3
	L22.2,19.4z M13.7,56c-1.2-0.4-1.8-1.7-1.3-2.9l3.4-9.6l0.6-3.3l4.8,1.1l-4.7,13.3c-0.3,0.9-1.1,1.5-2.1,1.5
	C14.2,56.1,14,56.1,13.7,56z M3.5,58.3c0-0.4,0.2-0.7,0.6-0.7c0,0,0.1,0,0.1,0H32c1.7,0,3.3,0,4.8,0l0,0c-0.1,0.4-0.2,0.9-0.3,1.3
	c0,0.1-0.1,0.3-0.1,0.4c-0.1,0.3-0.1,0.7-0.2,1c0,0.1,0,0.2,0,0.2H14.5C8.6,60.5,3.8,59,3.5,58.3z M49.5,60.5h-1.7
	c0-0.1,0-0.2,0-0.3c0-0.5,0-1,0-1.5v-0.2c0-0.5-0.1-1.1-0.1-1.6c0-0.1,0-0.1,0-0.2c8.3-1.1,11.4-2.9,12.3-3.5
	c0.3,0.1,0.5,0.4,0.5,0.7C60.4,54.9,55.1,60.5,49.5,60.5L49.5,60.5z"/>
</svg>
