<?xml version="1.0" encoding="UTF-8"?>
<svg id="Layer_2" data-name="Layer 2" xmlns="http://www.w3.org/2000/svg" viewBox="0 0 86.05 112.86">
  <defs>
    <style>
       .cls-1 {
        fill: #013753;
      }
    </style>
  </defs>
  <g id="Capa_1" data-name="Capa 1">
    <g>
      <path class="cls-1" d="m15.33,94.26c-7.1-2.2-11.98-6.46-14.22-13.36-.63-1.95-1.03-4.06-1.04-6.1C-.01,56.53-.02,38.27.04,20.01.07,9.1,8.98.13,19.9.07c15.44-.09,30.89-.09,46.33,0,10.45.06,19.24,8.39,19.64,18.83.32,8.38.11,16.78.12,25.17.01,9.74,0,19.47,0,29.21,0,10.46-4.74,17.17-14.57,20.7-.24.09-.44.27-.77.48,2.3,3.91,4.64,7.73,6.79,11.66.59,1.08.89,2.52.76,3.73-.17,1.68-1.5,2.66-3.17,2.93-1.67.26-3.38-.26-3.92-1.8-1.48-4.16-4.54-4.29-8.26-4.25-14.43.17-28.87.09-43.3.03-1.52,0-2.56.28-3.13,1.79-.28.74-.75,1.42-1.19,2.1-1.39,2.16-3.72,2.8-5.71,1.59-1.92-1.17-2.48-3.45-1.26-5.63,2.03-3.63,4.15-7.2,6.23-10.8.26-.45.5-.92.85-1.56Zm62.45-38.33H8.2c-.04.71-.1,1.3-.1,1.88,0,5.44-.02,10.88,0,16.31.03,7.41,5.06,12.6,12.47,12.63,14.97.07,29.94.07,44.91,0,7.34-.03,12.33-5.08,12.42-12.43.07-5.57.02-11.14.01-16.72,0-.52-.08-1.05-.13-1.68Zm-38.89-30.72H8.24v22.34h30.65v-22.34Zm38.9.02h-30.54v22.33h30.54v-22.33ZM8.91,16.87h68.32c-1.27-5.17-5.92-8.71-11.49-8.75-7.18-.05-14.37-.01-21.55-.01-7.99,0-15.98-.04-23.96.02-5.58.04-10.65,3.99-11.32,8.75Zm13.55,81.77h40.98q-1.46-3.79-5.25-3.79c-10.2,0-20.41,0-30.61,0q-3.72,0-5.12,3.79Z"/>
      <path class="cls-1" d="m24.14,59.24c5.96,0,10.82,4.83,10.77,10.71-.06,5.88-4.99,10.72-10.86,10.67-5.83-.05-10.59-4.83-10.63-10.67-.04-5.94,4.73-10.71,10.72-10.71Zm0,13.29c1.44,0,2.79-1.32,2.64-2.73-.17-1.51-1-2.49-2.63-2.48-1.61,0-2.48.92-2.61,2.47-.12,1.46,1.15,2.73,2.61,2.73Z"/>
      <path class="cls-1" d="m72.57,69.9c0,5.97-4.78,10.75-10.72,10.72-5.89-.03-10.74-4.93-10.7-10.81.04-5.82,4.82-10.54,10.69-10.56,6.03-.02,10.73,4.65,10.72,10.66Zm-8.08.01c.01-1.55-1.07-2.63-2.64-2.59-1.59.04-2.44.97-2.61,2.47-.15,1.37,1.18,2.71,2.59,2.75,1.47.04,2.65-1.13,2.66-2.63Z"/>
    </g>
  </g>
</svg>