<?xml version="1.0" encoding="utf-8"?>
<!-- Generator: Adobe Illustrator 27.9.0, SVG Export Plug-In . SVG Version: 6.00 Build 0)  -->
<svg version="1.1" id="Layer_1" xmlns="http://www.w3.org/2000/svg" xmlns:xlink="http://www.w3.org/1999/xlink" x="0px" y="0px"
	 viewBox="0 0 58.8 50.2" style="enable-background:new 0 0 58.8 50.2;" xml:space="preserve">
<path d="M45,10.4h-4.2V7.8c0-1.9-1.5-3.5-3.5-3.5l0,0h-16c-1.9,0-3.5,1.6-3.5,3.5v2.6h-4.2c-4.1,0-7.5,3.4-7.5,7.5v18.9
	c0,4.1,3.4,7.5,7.5,7.5h31.3c4.1,0,7.5-3.4,7.5-7.5V17.9C52.5,13.8,49.1,10.4,45,10.4z M20.8,7.8c0-0.3,0.2-0.5,0.5-0.5l0,0h16
	c0.3,0,0.5,0.2,0.5,0.5v2.6h-17V7.8z M9.1,17.9c0-2.5,2-4.5,4.5-4.5h31.3c2.5,0,4.5,2,4.5,4.5v1.4c0,3.6-2.9,6.5-6.5,6.5h-8.6V24
	c0-1.9-1.6-3.5-3.5-3.5h-3c-1.9,0-3.5,1.6-3.5,3.5v1.8h-8.7c-3.6,0-6.5-2.9-6.5-6.5C9.1,19.3,9.1,17.9,9.1,17.9z M31.3,30.1
	c0,0.3-0.2,0.5-0.5,0.5h-3c-0.3,0-0.5-0.2-0.5-0.5v-6c0-0.3,0.2-0.5,0.5-0.5h3c0.3,0,0.5,0.2,0.5,0.5V30.1z M45,41.3H13.6
	c-2.5,0-4.5-2-4.5-4.5V26.3c1.8,1.7,4.1,2.6,6.5,2.6h8.7v1.2c0,1.9,1.6,3.5,3.5,3.5h3c1.9,0,3.5-1.6,3.5-3.5v-1.2H43
	c2.4,0,4.7-0.9,6.5-2.5v10.5C49.5,39.3,47.5,41.3,45,41.3L45,41.3z"/>
</svg>
